<?xml version="1.0" standalone="no"?>
<!DOCTYPE svg PUBLIC "-//W3C//DTD SVG 20010904//EN"
 "http://www.w3.org/TR/2001/REC-SVG-20010904/DTD/svg10.dtd">
<svg version="1.0" xmlns="http://www.w3.org/2000/svg"
 width="4146.000000pt" height="719.000000pt" viewBox="0 0 4146.000000 719.000000"
 preserveAspectRatio="xMidYMid meet">

<g transform="translate(0.000000,719.000000) scale(0.100000,-0.100000)"
fill="white" stroke="none">
<path d="M2745 7163 c-22 -2 -89 -13 -149 -24 -275 -51 -533 -175 -751 -360
-44 -37 -454 -443 -911 -901 -895 -897 -862 -860 -899 -1003 -81 -316 206
-629 529 -576 159 26 107 -20 1063 928 476 472 881 868 900 881 233 158 553
145 781 -32 31 -24 427 -415 878 -868 882 -883 871 -871 925 -1028 33 -94 34
-304 2 -405 -29 -91 -83 -181 -161 -268 -185 -207 -189 -474 -9 -665 95 -99
201 -144 342 -144 156 0 246 43 377 181 195 205 333 475 400 781 19 90 22 134
22 315 0 181 -3 225 -22 315 -48 220 -124 400 -249 590 -72 110 -114 153 -982
1021 -985 984 -983 982 -1206 1093 -273 136 -582 196 -880 169z"/>
<path d="M33545 6236 c-173 -42 -296 -161 -341 -329 -18 -69 -18 -198 1 -272
54 -204 235 -335 465 -335 230 0 411 131 465 335 17 67 19 199 4 264 -27 118
-122 242 -227 295 -103 52 -254 70 -367 42z"/>
<path d="M31450 5729 c-190 -21 -355 -38 -367 -38 l-23 -1 0 -425 0 -425 -310
0 -310 0 0 -355 0 -355 310 0 310 0 0 -782 c0 -819 3 -888 45 -1053 107 -424
363 -675 782 -771 39 -8 143 -17 243 -21 189 -6 321 4 475 38 96 20 302 86
309 98 4 6 -210 680 -219 689 -2 2 -33 -8 -68 -22 -122 -49 -230 -68 -352 -64
-93 3 -119 8 -167 30 -118 55 -202 167 -227 302 -7 40 -11 314 -11 808 l0 748
460 0 460 0 -2 353 -3 352 -457 3 -458 2 0 465 0 465 -37 -1 c-21 -1 -193 -19
-383 -40z"/>
<path d="M10820 4933 c-471 -33 -844 -184 -1127 -456 -141 -136 -219 -243
-303 -412 -90 -183 -127 -298 -166 -510 -25 -139 -31 -488 -10 -653 31 -239
91 -438 188 -622 149 -282 394 -517 686 -656 446 -213 1061 -245 1507 -78 188
71 419 216 570 358 l60 56 -274 269 -275 269 -56 -49 c-164 -142 -400 -222
-660 -223 -340 0 -618 137 -784 388 -93 140 -138 274 -156 468 -47 494 219
916 657 1043 313 91 630 30 896 -173 l59 -45 28 29 c272 284 480 506 480 513
0 14 -171 159 -257 219 -292 201 -663 293 -1063 265z"/>
<path d="M25070 4924 c-890 -120 -1460 -788 -1460 -1710 0 -809 394 -1407
1086 -1647 226 -79 440 -111 724 -111 234 0 368 16 575 69 314 80 594 222 776
394 l74 69 -55 57 c-30 31 -149 147 -263 257 l-208 201 -32 -30 c-107 -101
-294 -186 -522 -239 -143 -32 -385 -44 -529 -25 -412 55 -713 304 -774 639
l-9 52 1289 0 c1218 0 1289 1 1295 18 13 32 8 513 -5 612 -34 242 -86 419
-177 605 -222 451 -631 719 -1205 791 -143 18 -440 17 -580 -2z m485 -715
c264 -32 468 -146 585 -325 44 -67 90 -185 104 -266 l7 -38 -891 0 -890 0 6
28 c13 56 95 211 148 279 194 247 546 369 931 322z"/>
<path d="M28928 4929 c-59 -5 -165 -20 -235 -34 -695 -141 -1149 -588 -1288
-1269 -68 -335 -53 -733 41 -1042 86 -286 210 -491 412 -686 263 -252 618
-405 1041 -449 144 -15 433 -6 561 16 325 58 613 203 871 438 l63 57 -275 269
-274 268 -57 -48 c-202 -168 -486 -248 -774 -219 -409 42 -697 284 -801 675
-23 90 -26 118 -27 275 0 149 3 188 22 263 71 286 236 499 477 621 147 73 268
100 450 99 106 -1 148 -6 229 -27 124 -32 261 -98 357 -171 l74 -56 148 153
c82 84 197 205 257 269 l109 116 -57 55 c-344 331 -772 469 -1324 427z"/>
<path d="M13825 4899 c-207 -22 -428 -86 -609 -178 -303 -154 -543 -397 -696
-706 -128 -257 -178 -462 -187 -761 -6 -194 3 -317 33 -462 73 -356 229 -642
482 -884 212 -203 475 -336 801 -405 118 -25 143 -27 386 -28 212 0 279 3 360
19 154 28 318 81 452 146 538 259 866 767 913 1414 37 530 -135 1012 -489
1367 -144 143 -262 227 -441 313 -301 144 -652 202 -1005 165z m422 -760 c388
-88 669 -457 690 -905 23 -486 -235 -879 -647 -989 -99 -26 -335 -32 -440 -11
-272 56 -477 216 -600 469 -108 224 -133 527 -65 785 131 493 571 764 1062
651z"/>
<path d="M39465 4895 c-769 -99 -1307 -623 -1442 -1405 -24 -138 -24 -469 1
-615 122 -738 616 -1247 1341 -1381 81 -16 148 -19 360 -19 243 1 268 3 386
28 614 130 1043 510 1234 1090 122 372 124 801 5 1169 -42 130 -156 355 -237
467 -249 346 -624 573 -1073 652 -152 27 -425 33 -575 14z m340 -735 c276 -31
504 -178 654 -421 105 -171 151 -340 151 -557 0 -490 -270 -860 -692 -946
-101 -21 -305 -21 -406 0 -207 42 -402 173 -521 347 -51 75 -110 208 -138 315
-24 88 -26 114 -26 287 0 173 2 199 26 287 87 324 290 553 573 647 76 26 154
40 274 50 8 0 56 -4 105 -9z"/>
<path d="M17880 4890 c-310 -30 -583 -157 -853 -395 -54 -48 -100 -85 -102
-83 -1 1 -12 89 -24 193 -12 105 -24 202 -27 218 l-6 27 -364 0 -364 0 0
-1655 0 -1655 405 0 404 0 4 937 c3 918 3 939 24 1008 56 187 111 284 232 408
108 112 247 195 391 234 101 28 330 25 433 -5 293 -84 479 -302 542 -635 13
-67 15 -221 15 -1013 l0 -934 410 0 410 0 0 948 c0 568 -4 983 -10 1037 -34
298 -127 573 -267 784 -70 105 -212 254 -314 331 -248 185 -612 282 -939 250z"/>
<path d="M21665 4889 c-311 -30 -589 -164 -875 -422 -55 -50 -65 -55 -71 -40
-3 10 -17 109 -29 221 l-24 202 -368 0 -368 0 0 -1655 0 -1655 410 0 409 0 3
953 3 952 29 85 c36 106 65 165 129 258 155 226 413 362 686 362 341 0 609
-181 721 -488 66 -182 63 -131 67 -1174 l4 -948 410 0 410 0 -4 972 c-3 848
-6 987 -20 1078 -65 404 -198 691 -427 920 -225 225 -499 350 -830 380 -128
11 -137 11 -265 -1z"/>
<path d="M33260 3200 l0 -1660 410 0 410 0 0 1660 0 1660 -410 0 -410 0 0
-1660z"/>
<path d="M34403 4838 c3 -7 321 -754 707 -1661 l703 -1647 445 2 444 3 699
1650 c385 908 699 1653 699 1658 0 4 -199 7 -442 7 l-443 0 -232 -563 c-166
-402 -302 -754 -478 -1236 -135 -371 -247 -677 -249 -678 -2 -2 -8 9 -14 24
-5 15 -122 336 -260 713 -184 502 -310 825 -471 1210 l-220 525 -446 3 c-357
2 -446 0 -442 -10z"/>
</g>
</svg>
